<svg width="16" height="16" viewBox="0 0 16 16" fill="none" xmlns="http://www.w3.org/2000/svg">
<path fill-rule="evenodd" clip-rule="evenodd" d="M8.16667 2.66667C8.16667 3.03486 7.8682 3.33333 7.5 3.33333H3.33333V12.6667H7.5C7.8682 12.6667 8.16667 12.9651 8.16667 13.3333C8.16667 13.7015 7.8682 14 7.5 14H2.66667C2.29848 14 2 13.7015 2 13.3333V2.66667C2 2.29848 2.29848 2 2.66667 2H7.5C7.8682 2 8.16667 2.29848 8.16667 2.66667Z" fill="white"/>
<path fill-rule="evenodd" clip-rule="evenodd" d="M14 7.99967C14 8.17647 13.9297 8.34607 13.8047 8.47107L10.8047 11.4711C10.5444 11.7314 10.1223 11.7314 9.86194 11.4711C9.6016 11.2107 9.6016 10.7886 9.86194 10.5283L11.7239 8.66634H5.83334C5.46515 8.66634 5.16667 8.36787 5.16667 7.99967C5.16667 7.63147 5.46515 7.33301 5.83334 7.33301H11.7239L9.86194 5.47108C9.6016 5.21073 9.6016 4.78862 9.86194 4.52827C10.1223 4.26792 10.5444 4.26792 10.8047 4.52827L13.8047 7.52827C13.9297 7.65327 14 7.82287 14 7.99967Z" fill="white"/>
</svg>
