<svg width="14" height="14" viewBox="0 0 14 14" fill="none" xmlns="http://www.w3.org/2000/svg">
<path fill-rule="evenodd" clip-rule="evenodd" d="M7.26086 0.936582C7.09665 0.854472 6.90333 0.854472 6.73913 0.936582L1.48912 3.56158C1.29149 3.66039 1.16666 3.86238 1.16666 4.08333V5.25C1.16666 5.57216 1.42783 5.83333 1.74999 5.83333H2.33333L2.33333 9.33333C2.08225 9.33333 1.85933 9.49398 1.77993 9.73222L1.1966 11.4822C1.1373 11.6601 1.16713 11.8556 1.27677 12.0077C1.38641 12.1599 1.56249 12.25 1.75 12.25H12.25C12.4375 12.25 12.6136 12.1599 12.7233 12.0077C12.8329 11.8556 12.8627 11.6601 12.8034 11.4822L12.2201 9.73222C12.1407 9.49398 11.9177 9.33333 11.6667 9.33333V5.83333H12.25C12.5722 5.83333 12.8333 5.57216 12.8333 5.25V4.08333C12.8333 3.86238 12.7085 3.66039 12.5109 3.56158L7.26086 0.936582ZM10.5 5.83333H9.33333V9.33333H10.5V5.83333ZM8.16666 9.33333V5.83333H5.83333V9.33333H8.16666ZM4.66666 9.33333V5.83333H3.49999V9.33333H4.66666Z" fill="#0D2F28"/>
</svg>
