<svg width="14" height="14" viewBox="0 0 14 14" fill="none" xmlns="http://www.w3.org/2000/svg">
<path d="M6.18653 2.07759C5.46263 1.74353 4.69965 1.6718 3.98459 1.83124C2.85989 2.08202 1.9063 2.89385 1.45197 4.02672C0.516214 6.36003 1.74014 9.67908 6.7148 12.4673C6.89196 12.5666 7.10802 12.5666 7.28518 12.4673C12.2598 9.67908 13.4837 6.35997 12.548 4.02672C12.0936 2.89384 11.14 2.08201 10.0153 1.83124C9.21829 1.65353 8.36172 1.76301 7.56612 2.20285C6.93442 2.88265 6.47837 3.87703 6.42243 5.01414L8.25072 6.84244L7.5534 8.93445C7.45149 9.24006 7.12115 9.40526 6.81554 9.30335C6.50987 9.2015 6.34473 8.87116 6.44658 8.56549L6.91593 7.15756L5.24999 5.49161V5.24998C5.24999 4.07231 5.60285 2.96385 6.18653 2.07759Z" fill="#C8102E"/>
</svg>
