<svg width="14" height="14" viewBox="0 0 14 14" fill="none" xmlns="http://www.w3.org/2000/svg">
<path fill-rule="evenodd" clip-rule="evenodd" d="M6.99999 1.16699C3.77833 1.16699 1.16666 3.77866 1.16666 7.00033C1.16666 10.222 3.77833 12.8337 6.99999 12.8337C10.2216 12.8337 12.8333 10.222 12.8333 7.00033C12.8333 3.77866 10.2216 1.16699 6.99999 1.16699ZM5.83332 6.41699C5.83332 6.09482 6.09448 5.83366 6.41666 5.83366H6.99999C7.32217 5.83366 7.58332 6.09482 7.58332 6.41699V9.33366C7.58332 9.65583 7.32217 9.91699 6.99999 9.91699C6.67782 9.91699 6.41666 9.65583 6.41666 9.33366V7.00033C6.09448 7.00033 5.83332 6.73917 5.83332 6.41699ZM6.99999 4.08366C6.67782 4.08366 6.41666 4.34483 6.41666 4.66699C6.41666 4.98916 6.67782 5.25033 6.99999 5.25033C7.32217 5.25033 7.58332 4.98916 7.58332 4.66699C7.58332 4.34483 7.32217 4.08366 6.99999 4.08366Z" fill="#0D2F28"/>
</svg>
