<svg width="340" height="340" viewBox="0 0 340 340" fill="none" xmlns="http://www.w3.org/2000/svg">
<path d="M209.558 153.701L199.709 159.314L181.98 169.433L164.252 179.525L147.414 189.132L129.496 158.64L146.496 148.952L164.225 138.833L191.668 123.182L193.341 126.016L209.558 153.701Z" fill="#33FFC2" stroke="#0E473B" stroke-width="8.09524" stroke-linecap="round" stroke-linejoin="round"/>
<path d="M94.3361 219.758L76.4456 229.607L5.47729 107.207L23.3678 97.3582L76.7424 189.428L94.3361 219.758Z" fill="#33FFC2" stroke="#0E473B" stroke-width="8.09524" stroke-linecap="round" stroke-linejoin="round"/>
<path d="M199.736 200.033L181.98 210.125L147.414 229.85L131.331 202.111L130.953 201.463L94.0122 137.781L111.39 129.092L147.98 110.796L164.225 138.833L146.496 148.952L129.496 158.639L147.414 189.131L164.765 180.442L183.087 171.295L199.736 200.033Z" fill="#33FFC2" stroke="#0E473B" stroke-width="8.09524" stroke-linecap="round" stroke-linejoin="round"/>
<path d="M334.495 167.679L280.527 194.663L264.579 166.842L262.933 163.982L316.902 136.998L334.495 167.679Z" fill="#33FFC2" stroke="#0E473B" stroke-width="8.09524" stroke-linecap="round" stroke-linejoin="round"/>
<path d="M280.527 194.663L199.736 240.725L147.414 270.569L113.063 211.312L112.658 210.611L76.4456 148.169L93.1217 138.293L94.0122 137.781L130.953 201.463L131.331 202.111L147.414 229.85L181.98 210.125L199.736 200.033L262.933 163.982L264.579 166.842L280.527 194.663Z" fill="#33FFC2" stroke="#0E473B" stroke-width="8.09524" stroke-linecap="round" stroke-linejoin="round"/>
<path d="M263.527 126.717L201.382 162.147L183.087 171.294L164.765 180.442L147.414 189.131L164.252 179.524L181.981 169.432L199.709 159.313L209.558 153.701L263.527 126.717Z" fill="#33FFC2" stroke="#0E473B" stroke-width="8.09524" stroke-linecap="round" stroke-linejoin="round"/>
<path d="M263.526 126.717L209.558 153.701L193.341 126.016L191.668 123.182L245.636 96.1982L263.526 126.717Z" fill="#33FFC2" stroke="#0E473B" stroke-width="8.09524" stroke-linecap="round" stroke-linejoin="round"/>
<path d="M112.658 210.61L94.3358 219.758L76.7421 189.428L23.3674 97.3581L77.3358 70.374L111.39 129.091L94.012 137.78L93.1215 138.293L76.4453 148.169L112.658 210.61Z" fill="#33FFC2" stroke="#0E473B" stroke-width="8.09524" stroke-linecap="round" stroke-linejoin="round"/>
<path d="M334.495 167.679L201.382 243.586L147.414 270.57L199.736 240.725L280.527 194.663L334.495 167.679Z" fill="#33FFC2" stroke="#0E473B" stroke-width="8.09524" stroke-linecap="round" stroke-linejoin="round"/>
<path d="M113.063 211.312L76.4456 229.607L94.336 219.758L112.658 210.611L113.063 211.312Z" fill="#33FFC2" stroke="#0E473B" stroke-width="8.09524" stroke-linecap="round" stroke-linejoin="round"/>
</svg>
