<svg width="14" height="14" viewBox="0 0 14 14" fill="none" xmlns="http://www.w3.org/2000/svg">
<path fill-rule="evenodd" clip-rule="evenodd" d="M11.6667 1.16699C10.378 1.16699 9.33333 2.21166 9.33333 3.50033C9.33333 4.78899 10.378 5.83366 11.6667 5.83366C12.9553 5.83366 14 4.78899 14 3.50033C14 2.21166 12.9553 1.16699 11.6667 1.16699ZM10.5 3.50033C10.5 2.85599 11.0223 2.33366 11.6667 2.33366C12.311 2.33366 12.8333 2.85599 12.8333 3.50033C12.8333 4.14466 12.311 4.66699 11.6667 4.66699C11.0223 4.66699 10.5 4.14466 10.5 3.50033Z" fill="#111111"/>
<path d="M11.6667 6.99987C11.3094 6.99987 10.9646 6.94632 10.6398 6.8468C9.5214 7.32093 8.29133 7.5832 7 7.5832C4.79279 7.5832 2.76453 6.81705 1.16667 5.53613V11.0832C1.16667 11.4054 1.42784 11.6665 1.75 11.6665H12.25C12.5722 11.6665 12.8333 11.4054 12.8333 11.0832V6.80072C12.4684 6.92969 12.0758 6.99987 11.6667 6.99987Z" fill="#111111"/>
<path d="M8.16667 3.49967C8.16667 3.0906 8.23684 2.69792 8.36582 2.33301H1.75C1.42784 2.33301 1.16667 2.59418 1.16667 2.91634V3.96516C2.64894 5.4778 4.71486 6.41634 7 6.41634C7.80156 6.41634 8.57617 6.30084 9.30808 6.08565C8.60674 5.44556 8.16667 4.52401 8.16667 3.49967Z" fill="#111111"/>
</svg>
