<svg width="14" height="14" viewBox="0 0 14 14" fill="none" xmlns="http://www.w3.org/2000/svg">
<path fill-rule="evenodd" clip-rule="evenodd" d="M7 1.16699H2.91667C2.5945 1.16699 2.33333 1.42816 2.33333 1.75033V12.2503C2.33333 12.5725 2.5945 12.8337 2.91667 12.8337H11.0833C11.4055 12.8337 11.6667 12.5725 11.6667 12.2503V5.83366H7.58333C7.26116 5.83366 7 5.57249 7 5.25033V1.16699ZM4.66667 8.16699C4.66667 7.84482 4.92784 7.58366 5.25 7.58366H7C7.32217 7.58366 7.58333 7.84482 7.58333 8.16699C7.58333 8.48917 7.32217 8.75033 7 8.75033H5.25C4.92784 8.75033 4.66667 8.48917 4.66667 8.16699ZM5.25 9.91699C4.92784 9.91699 4.66667 10.1782 4.66667 10.5003C4.66667 10.8225 4.92784 11.0837 5.25 11.0837H9.04167C9.36384 11.0837 9.625 10.8225 9.625 10.5003C9.625 10.1782 9.36384 9.91699 9.04167 9.91699H5.25Z" fill="#111111"/>
<path d="M11.325 4.66708L8.16667 1.50879V4.66708H11.325Z" fill="#111111"/>
</svg>
