<svg width="14" height="14" viewBox="0 0 14 14" fill="none" xmlns="http://www.w3.org/2000/svg">
<path fill-rule="evenodd" clip-rule="evenodd" d="M1.75 1.75H6.9517C6.42407 3.65155 6.09572 5.56061 5.98016 7.5495L5.94428 8.16667H8.3125V7H7.18807C7.3346 5.21149 7.6629 3.48238 8.16427 1.75H12.25V12.25H1.75V1.75ZM5.25 4.66667H4.08333V6.41667H5.25V4.66667ZM9.91667 4.66667H8.75V6.41667H9.91667V4.66667ZM4.99024 8.55627L4.50488 8.2327L3.85773 9.20342L4.34309 9.52706C5.26117 10.1391 6.1054 10.5 7 10.5C7.8946 10.5 8.73886 10.1391 9.65691 9.52706L10.1423 9.20342L9.49515 8.2327L9.00976 8.55627C8.17781 9.11091 7.56373 9.33333 7 9.33333C6.43627 9.33333 5.82216 9.11091 4.99024 8.55627Z" fill="#0D2F28"/>
</svg>
