<svg width="64" height="64" viewBox="0 0 64 64" fill="none" xmlns="http://www.w3.org/2000/svg">
<path d="M45.2553 15.7939C45.2824 15.8102 45.3041 15.821 45.3258 15.8373H45.3367L45.2553 15.7994V15.7939Z" fill="#E1E6E7" stroke="#0D2F28" stroke-width="1.01695" stroke-linecap="round" stroke-linejoin="round"/>
<path d="M52.8268 26.869L54.7414 25.7625C55.2837 25.448 55.7394 24.9761 56.1028 24.3415C56.4716 23.7124 56.656 23.0832 56.656 22.4595C56.656 21.8358 56.4716 21.4235 56.1028 21.2174L55.9889 21.1632C55.6472 21.0168 55.2295 21.0927 54.7414 21.3693L52.8268 22.4757V18.0825L54.7414 16.9815C55.2837 16.6669 55.7394 16.195 56.1028 15.5604C56.4716 14.9259 56.656 14.3022 56.656 13.6785C56.656 13.0547 56.4716 12.6425 56.1028 12.431L55.9889 12.3767C55.6472 12.2357 55.2295 12.3062 54.7414 12.5882L52.8268 13.6947V9.30151C52.8268 8.09202 52.4526 7.27304 51.7041 6.84999L51.4654 6.73067C50.7658 6.44863 49.9468 6.5788 48.9977 7.12117L47.3651 8.0649L45.7163 9.01406L36.2411 14.4865L25.7136 20.5612L23.799 21.6676L22.2099 22.5842C21.1577 23.1917 20.2573 24.1463 19.5089 25.4371C18.7604 26.728 18.3861 27.9808 18.3861 29.1849V59.9267C18.3861 61.1361 18.7604 61.9551 19.5089 62.3782C20.2573 62.8067 21.1577 62.7199 22.2099 62.1124L48.9977 46.6439C50.0553 46.0364 50.9557 45.0873 51.7041 43.791C52.4526 42.5002 52.8268 41.2472 52.8268 40.0432V35.65L54.7414 34.5435C55.2837 34.2343 55.7394 33.7571 56.1028 33.1279C56.4716 32.4933 56.656 31.8697 56.656 31.2459C56.656 30.6222 56.4716 30.2045 56.1028 29.9984L55.9889 29.9442C55.6472 29.7977 55.2295 29.8737 54.7414 30.1558L52.8268 31.2568V26.869ZM34.641 46.1449C34.641 46.7686 34.462 47.3977 34.0932 48.0269C33.7244 48.6615 33.2743 49.1333 32.7319 49.4479L26.0336 53.315C25.4912 53.6242 25.0357 53.6784 24.6668 53.4669C24.3035 53.2608 24.119 52.8432 24.119 52.2195V47.8316C24.119 47.2079 24.3035 46.5788 24.6668 45.9497C25.0357 45.3151 25.4912 44.8432 26.0336 44.5286L32.7319 40.6615C33.2743 40.3524 33.7244 40.2981 34.0932 40.5096C34.462 40.7157 34.641 41.1334 34.641 41.7517V46.1449ZM34.641 35.1672C34.641 35.753 34.4838 36.3442 34.1529 36.9408C34.1367 36.9788 34.1149 37.0113 34.0932 37.0493C33.7244 37.6838 33.2743 38.1557 32.7319 38.4649L26.0336 42.332C25.4912 42.6465 25.0357 42.7008 24.6668 42.4893C24.3035 42.2832 24.119 41.8656 24.119 41.2419V30.2642C24.119 29.6404 24.3035 29.0167 24.6668 28.3821C25.0357 27.7476 25.4912 27.2757 26.0336 26.9611L26.2017 26.8635L32.7319 23.0994C33.2743 22.7849 33.7244 22.7306 34.0932 22.9421C34.462 23.1482 34.641 23.5659 34.641 24.1896V35.1672ZM47.0885 38.9638C47.0885 39.5876 46.9041 40.2167 46.5353 40.8459C46.1719 41.4804 45.7163 41.9523 45.1739 42.2669L38.4757 46.134C37.9333 46.4432 37.4776 46.4974 37.1142 46.2859C36.7454 46.0798 36.561 45.6622 36.561 45.0385V34.0608C36.561 33.4425 36.7454 32.8133 37.1142 32.1787C37.4776 31.5496 37.9333 31.0724 38.4757 30.7632L45.1739 26.896C45.3583 26.7876 45.5319 26.7116 45.6946 26.6682C46.0146 26.576 46.2966 26.5977 46.5353 26.7387C46.9041 26.9503 47.0885 27.3625 47.0885 27.9863V38.9638ZM47.0885 21.3964C47.0885 22.0201 46.9041 22.6493 46.5353 23.2784C46.2044 23.8533 45.7976 24.2981 45.3204 24.6073C45.2715 24.6398 45.2281 24.6669 45.1793 24.6941L38.4811 28.5612C37.9387 28.8758 37.4831 28.9245 37.1197 28.7184C36.7509 28.5069 36.5664 28.0893 36.5664 27.471V23.0777C36.5664 22.454 36.7509 21.8303 37.1197 21.1957C37.4831 20.5611 37.9387 20.0893 38.4811 19.7747L45.1793 15.913C45.2336 15.8804 45.2824 15.8533 45.3312 15.8316C45.3096 15.8154 45.2879 15.8046 45.2607 15.7883L45.3421 15.8262C45.814 15.5876 46.2153 15.5659 46.5407 15.7557C46.8444 15.9238 47.0234 16.2385 47.0722 16.6941C47.0885 16.7917 47.094 16.8947 47.094 17.0032V21.391L47.0885 21.3964Z" fill="#E1E6E7" stroke="#0D2F28" stroke-width="1.01695" stroke-linecap="round" stroke-linejoin="round"/>
<path d="M34.6411 24.1895V35.1672C34.6411 35.7529 34.4839 36.3441 34.153 36.9407C34.1368 36.9787 34.115 37.0112 34.0933 37.0491C33.7245 37.6837 33.2744 38.1556 32.732 38.4647L26.0337 42.3319C25.4913 42.6464 25.0357 42.7007 24.6669 42.4892C24.3035 42.2831 24.1191 41.8655 24.1191 41.2417V30.2641C24.1191 29.6403 24.3035 29.0167 24.6669 28.3821C25.0357 27.7475 25.4913 27.2756 26.0337 26.9611L26.2019 26.8634L32.732 23.0994C33.2744 22.7848 33.7245 22.7305 34.0933 22.942C34.4621 23.1481 34.6411 23.5658 34.6411 24.1895Z" fill="#E1E6E7" stroke="#0D2F28" stroke-width="1.01695" stroke-linecap="round" stroke-linejoin="round"/>
<path d="M47.0884 17.009V21.3968C47.0884 22.0205 46.904 22.6496 46.5352 23.2788C46.2043 23.8537 45.7975 24.2985 45.3202 24.6076L45.2552 24.5751C45.2552 24.5751 45.2985 24.5968 45.3148 24.613C45.266 24.6456 45.2226 24.6728 45.1738 24.6999L38.4755 28.5669C37.9331 28.8815 37.4775 28.9303 37.1141 28.7242C36.7453 28.5127 36.5609 28.0951 36.5609 27.4768V23.0835C36.5609 22.4598 36.7453 21.8361 37.1141 21.2015C37.4775 20.5669 37.9331 20.0951 38.4755 19.7805L45.1738 15.9188C45.228 15.8863 45.2768 15.8591 45.3257 15.8374H45.3365C45.8084 15.5988 46.2097 15.5771 46.5352 15.7669C46.8389 15.9351 47.0179 16.2496 47.0667 16.7052C47.0829 16.8029 47.0884 16.9059 47.0884 17.0144V17.009Z" fill="#E1E6E7" stroke="#0D2F28" stroke-width="1.01695" stroke-linecap="round" stroke-linejoin="round"/>
<path d="M34.6411 41.7518V46.145C34.6411 46.7688 34.4621 47.3979 34.0933 48.0271C33.7245 48.6616 33.2744 49.1335 32.732 49.4481L26.0337 53.3152C25.4913 53.6243 25.0357 53.6786 24.6669 53.4671C24.3035 53.261 24.1191 52.8434 24.1191 52.2197V47.8318C24.1191 47.2081 24.3035 46.5789 24.6669 45.9498C25.0357 45.3152 25.4913 44.8433 26.0337 44.5288L32.732 40.6616C33.2744 40.3525 33.7245 40.2982 34.0933 40.5098C34.4621 40.7159 34.6411 41.1335 34.6411 41.7518Z" fill="#E1E6E7" stroke="#0D2F28" stroke-width="1.01695" stroke-linecap="round" stroke-linejoin="round"/>
<path d="M47.0889 27.9864V38.9641C47.0889 39.5878 46.9045 40.2169 46.5357 40.8461C46.1723 41.4807 45.7167 41.9525 45.1743 42.2671L38.476 46.1342C37.9337 46.4434 37.4781 46.4976 37.1147 46.2861C36.7459 46.08 36.5615 45.6624 36.5615 45.0387V34.061C36.5615 33.4427 36.7459 32.8136 37.1147 32.179C37.4781 31.5498 37.9337 31.0725 38.476 30.7634L45.1743 26.8963C45.3588 26.7878 45.5323 26.7118 45.695 26.6684C46.015 26.5762 46.2971 26.5979 46.5357 26.7389C46.9045 26.9505 47.0889 27.3627 47.0889 27.9864Z" fill="#E1E6E7" stroke="#0D2F28" stroke-width="1.01695" stroke-linecap="round" stroke-linejoin="round"/>
<path d="M55.9889 12.3766C55.6472 12.2356 55.2295 12.3061 54.7414 12.5882L52.8268 13.6947V10.793L55.9889 12.3766Z" fill="#E1E6E7" stroke="#0D2F28" stroke-width="1.01695" stroke-linecap="round" stroke-linejoin="round"/>
<path d="M55.9889 21.1633C55.6472 21.0169 55.2295 21.0928 54.7414 21.3694L52.8268 22.4758V19.5796L55.9889 21.1633Z" fill="#E1E6E7" stroke="#0D2F28" stroke-width="1.01695" stroke-linecap="round" stroke-linejoin="round"/>
<path d="M55.9889 29.9446C55.6472 29.7981 55.2295 29.8741 54.7414 30.1561L52.8268 31.2571V28.3608L55.9889 29.9446Z" fill="#E1E6E7" stroke="#0D2F28" stroke-width="1.01695" stroke-linecap="round" stroke-linejoin="round"/>
<path d="M51.4601 6.73087C50.7605 6.44883 49.9415 6.579 48.9924 7.12138L47.3599 8.0651L45.711 9.01426L36.2358 14.4867L25.7083 20.5614L23.7937 21.6678L22.2046 22.5844C21.1524 23.1919 20.2521 24.1465 19.5036 25.4373C18.7551 26.7282 18.3808 27.981 18.3808 29.1851V59.9269C18.3808 61.1363 18.7551 61.9553 19.5036 62.3784L8.89475 57.074L8.65614 56.9547C7.90766 56.5316 7.53339 55.7126 7.53339 54.5031V23.7613C7.53339 22.5573 7.90766 21.3044 8.65614 20.0136C9.40461 18.7227 10.3049 17.7682 11.3571 17.1607L38.1449 1.69764C39.2026 1.09018 40.1029 0.997975 40.8514 1.42645L51.4601 6.73087Z" fill="#E1E6E7" stroke="#0D2F28" stroke-width="1.01695" stroke-linecap="round" stroke-linejoin="round"/>
</svg>
