<svg width="14" height="15" viewBox="0 0 14 15" fill="none" xmlns="http://www.w3.org/2000/svg">
<path d="M10.5 13.3787C10.1963 13.7929 9.70612 14.1243 9.02959 14.3728C8.36687 14.6213 7.62821 14.7456 6.81361 14.7456C5.50197 14.7456 4.3284 14.4487 3.2929 13.855C2.2712 13.2475 1.46351 12.3915 0.869823 11.287C0.289941 10.1686 0 8.8501 0 7.33136C0 5.84024 0.289941 4.54931 0.869823 3.45858C1.4497 2.35404 2.27811 1.50493 3.35503 0.911243C4.44576 0.303748 5.72978 0 7.2071 0C8.40829 0 9.4783 0.214004 10.4172 0.642012C11.356 1.05621 12.1223 1.6568 12.716 2.44379C13.3235 3.23077 13.7032 4.16963 13.855 5.26036H9.8787C9.54734 3.9073 8.67061 3.23077 7.24852 3.23077C6.18541 3.23077 5.37771 3.58284 4.82544 4.28698C4.27318 4.99112 3.99704 6.00592 3.99704 7.33136C3.99704 8.71203 4.27318 9.76825 4.82544 10.5C5.39152 11.2318 6.19231 11.5976 7.22781 11.5976C8.13905 11.5976 8.87081 11.4251 9.42308 11.0799C9.98915 10.7347 10.3205 10.2239 10.4172 9.54734H7.18639V6.77219H13.9172V10.9556L14 14.5178H10.4379L10.5621 13.3787H10.5Z" fill="#111111"/>
</svg>
