<svg width="14" height="14" viewBox="0 0 14 14" fill="none" xmlns="http://www.w3.org/2000/svg">
<path fill-rule="evenodd" clip-rule="evenodd" d="M1.75 12.25V1.75H12.25V12.25H1.75ZM9.91667 4.66667H8.75V9.33333H9.91667V4.66667ZM5.25 7C5.25 7.32218 4.98883 7.58333 4.66667 7.58333C4.3445 7.58333 4.08333 7.32218 4.08333 7C4.08333 6.67782 4.3445 6.41667 4.66667 6.41667C4.98883 6.41667 5.25 6.67782 5.25 7ZM7 7.58333C7.32218 7.58333 7.58333 7.32218 7.58333 7C7.58333 6.67782 7.32218 6.41667 7 6.41667C6.67782 6.41667 6.41667 6.67782 6.41667 7C6.41667 7.32218 6.67782 7.58333 7 7.58333Z" fill="#0D2F28"/>
</svg>
