<svg width="14" height="14" viewBox="0 0 14 14" fill="none" xmlns="http://www.w3.org/2000/svg">
<path fill-rule="evenodd" clip-rule="evenodd" d="M7 12.8337C10.2216 12.8337 12.8333 10.222 12.8333 7.00033C12.8333 3.77866 10.2216 1.16699 7 1.16699C3.77834 1.16699 1.16667 3.77866 1.16667 7.00033C1.16667 10.222 3.77834 12.8337 7 12.8337ZM8.75 5.83366C8.75 6.80018 7.96653 7.58366 7 7.58366C6.03348 7.58366 5.25 6.80018 5.25 5.83366C5.25 4.86716 6.03348 4.08366 7 4.08366C7.96653 4.08366 8.75 4.86716 8.75 5.83366ZM7.00012 11.667C5.69439 11.667 4.51392 11.1307 3.66691 10.2665C4.44376 9.33658 5.60287 8.75033 7.00012 8.75033C8.39738 8.75033 9.55646 9.33658 10.3333 10.2665C9.48634 11.1307 8.30585 11.667 7.00012 11.667Z" fill="#111111"/>
</svg>
