<svg width="14" height="14" viewBox="0 0 14 14" fill="none" xmlns="http://www.w3.org/2000/svg">
<path d="M7 1.16699C5.55025 1.16699 4.375 2.34225 4.375 3.79199C4.375 5.24174 5.55025 6.41699 7 6.41699C8.44976 6.41699 9.625 5.24174 9.625 3.79199C9.625 2.34225 8.44976 1.16699 7 1.16699Z" fill="#0D2F28"/>
<path d="M6.99999 7C4.22462 7 2.2847 9.05398 2.04422 11.6121C2.02885 11.7756 2.0831 11.9379 2.19365 12.0594C2.30419 12.1808 2.46079 12.25 2.62499 12.25H11.375C11.5392 12.25 11.6958 12.1808 11.8064 12.0594C11.9169 11.9379 11.9712 11.7756 11.9558 11.6121C11.7153 9.05398 9.77537 7 6.99999 7Z" fill="#0D2F28"/>
</svg>
