<svg width="14" height="14" viewBox="0 0 14 14" fill="none" xmlns="http://www.w3.org/2000/svg">
<path fill-rule="evenodd" clip-rule="evenodd" d="M6.81036 1.19867C6.93327 1.15643 7.06673 1.15643 7.18964 1.19867L11.8563 2.80284C12.0919 2.88381 12.25 3.10541 12.25 3.35449V6.94917C12.25 8.58647 11.5798 9.76637 10.6094 10.6851C9.69214 11.5535 8.49053 12.2014 7.36861 12.8064L7.27697 12.8558C7.10413 12.9491 6.89587 12.9491 6.72303 12.8558L6.63139 12.8064C5.50949 12.2014 4.30788 11.5535 3.39062 10.6851C2.4202 9.76637 1.75 8.58647 1.75 6.94917V3.35449C1.75 3.10541 1.90815 2.88381 2.1437 2.80284L6.81036 1.19867ZM7 4.66699C6.19459 4.66699 5.54167 5.31991 5.54167 6.12532C5.54167 6.72336 5.90158 7.23727 6.41667 7.46232V8.75032C6.41667 9.0725 6.67782 9.33366 7 9.33366C7.32218 9.33366 7.58333 9.0725 7.58333 8.75032V7.46232C8.09842 7.23727 8.45833 6.72336 8.45833 6.12532C8.45833 5.31991 7.80541 4.66699 7 4.66699Z" fill="#111111"/>
</svg>
