<svg width="24" height="24" viewBox="0 0 24 24" fill="none" xmlns="http://www.w3.org/2000/svg">
<path fill-rule="evenodd" clip-rule="evenodd" d="M4.00195 3.93762C4.03489 3.41059 4.47194 3 5 3H19C19.5281 3 19.9651 3.41059 19.9981 3.93762L20.9981 19.9376C21.0153 20.2131 20.9178 20.4835 20.7288 20.6847C20.5398 20.8859 20.2761 21 20 21H4C3.72395 21 3.46018 20.8859 3.27117 20.6847C3.08217 20.4835 2.98473 20.2131 3.00195 19.9376L4.00195 3.93762ZM10 8C10 7.44772 9.55228 7 9 7C8.44772 7 8 7.44772 8 8C8 10.2091 9.79086 12 12 12C14.2091 12 16 10.2091 16 8C16 7.44772 15.5523 7 15 7C14.4477 7 14 7.44772 14 8C14 9.10457 13.1046 10 12 10C10.8954 10 10 9.10457 10 8Z" fill="#33FFC2"/>
</svg>
