<svg width="14" height="14" viewBox="0 0 14 14" fill="none" xmlns="http://www.w3.org/2000/svg">
<path fill-rule="evenodd" clip-rule="evenodd" d="M5.54362 0.924805L7.00192 2.38314L8.46026 0.924805L9.28526 1.74976L7.58526 3.44972V5.98982L9.78547 4.71955L10.4077 2.39736L11.5346 2.69931L11.0008 4.69143L12.9929 5.22522L12.6909 6.35213L10.3688 5.72991L8.169 6.99998L10.368 8.2696L12.6902 7.64736L12.9922 8.7743L11.0001 9.30805L11.5338 11.3002L10.407 11.6021L9.78471 9.27993L7.58526 8.01013V10.5498L9.28526 12.2497L8.46026 13.0747L7.00192 11.6164L5.54362 13.0747L4.71866 12.2497L6.41859 10.5498V8.01054L4.21992 9.27993L3.5977 11.6021L2.47078 11.3002L3.00457 9.30805L1.01245 8.77424L1.3144 7.64736L3.63659 8.2696L5.83566 6.99998L3.63586 5.72992L1.31367 6.35213L1.01172 5.22524L3.00384 4.69145L2.47005 2.69933L3.59696 2.39737L4.21919 4.71956L6.41859 5.98941V3.44972L4.71866 1.74976L5.54362 0.924805Z" fill="#0D2F28"/>
</svg>
