<svg width="80" height="80" viewBox="0 0 80 80" fill="none" xmlns="http://www.w3.org/2000/svg">
<path d="M16.6667 53.3335C25.5191 53.3335 31.1322 55.2908 34.5874 58.7462C38.0427 62.2012 40.0001 67.8145 40.0001 76.6668H46.6667C46.6667 67.8145 48.6241 62.2012 52.0794 58.7462C55.5344 55.2908 61.1477 53.3335 70.0001 53.3335V46.6668C61.1477 46.6668 55.5344 44.7095 52.0794 41.2542C48.6241 37.7992 46.6667 32.1859 46.6667 23.3335H40.0001C40.0001 32.1859 38.0427 37.7992 34.5874 41.2542C31.1322 44.7095 25.5191 46.6668 16.6667 46.6668V53.3335Z" fill="#33FF66"/>
<path d="M6.66675 29.9998C10.5142 29.9998 12.9041 30.8512 14.3597 32.3068C15.8154 33.7625 16.6667 36.1525 16.6667 39.9998H20.0001C20.0001 36.1525 20.8514 33.7625 22.307 32.3068C23.7627 30.8512 26.1526 29.9998 30.0001 29.9998V26.6665C26.1526 26.6665 23.7627 25.8151 22.307 24.3595C20.8514 22.9039 20.0001 20.514 20.0001 16.6665H16.6667C16.6667 20.514 15.8154 22.9039 14.3597 24.3595C12.9041 25.8151 10.5142 26.6665 6.66675 26.6665V29.9998Z" fill="#33FF66"/>
<path d="M26.6667 13.3335C29.3568 13.3335 30.9134 13.9302 31.825 14.8419C32.7367 15.7535 33.3334 17.3101 33.3334 20.0002H36.6667C36.6667 17.3101 37.2634 15.7535 38.1751 14.8419C39.0867 13.9302 40.6434 13.3335 43.3334 13.3335V10.0002C40.6434 10.0002 39.0867 9.40343 38.1751 8.4918C37.2634 7.58013 36.6667 6.02356 36.6667 3.3335H33.3334C33.3334 6.02356 32.7367 7.58013 31.825 8.4918C30.9134 9.40343 29.3568 10.0002 26.6667 10.0002V13.3335Z" fill="#33FF66"/>
</svg>
