<svg width="16" height="16" viewBox="0 0 16 16" fill="none" xmlns="http://www.w3.org/2000/svg">
<path d="M1.33337 7.66683C1.33337 6.85263 1.91719 6.17482 2.68903 6.02913C2.94341 3.36044 5.33898 1.3335 8.16671 1.3335C10.9944 1.3335 13.39 3.36044 13.6444 6.02913C14.4162 6.17482 15 6.85263 15 7.66683V10.0002C15 10.7646 14.4854 11.4088 13.7837 11.6053C13.4952 13.3424 11.9856 14.6668 10.1667 14.6668H9.00004C8.07957 14.6668 7.33337 13.9206 7.33337 13.0002V12.6668C7.33337 12.2986 7.63184 12.0002 8.00004 12.0002C8.36824 12.0002 8.66671 12.2986 8.66671 12.6668V13.0002C8.66671 13.1842 8.81597 13.3335 9.00004 13.3335H10.1667C11.2237 13.3335 12.1166 12.6306 12.4034 11.6668H12.3334C11.9652 11.6668 11.6667 11.3684 11.6667 11.0002V6.66683C11.6667 6.31054 11.9462 6.01952 12.2979 6.00109C12.0337 4.15231 10.3226 2.66683 8.16671 2.66683C6.01082 2.66683 4.2997 4.15231 4.03549 6.00109C4.3872 6.01952 4.66671 6.31054 4.66671 6.66683V11.0002C4.66671 11.3684 4.36823 11.6668 4.00004 11.6668H3.00004C2.07957 11.6668 1.33337 10.9206 1.33337 10.0002V7.66683Z" fill="#0D2F28"/>
</svg>
